<?xml version="1.0" encoding="UTF-8" standalone="no"?>
<!-- Created with Inkscape (http://www.inkscape.org/) -->

<svg
   width="297mm"
   height="210mm"
   viewBox="0 0 1122.5197 793.70081"
   version="1.1"
   id="svg1"
   inkscape:version="1.4 (86a8ad7, 2024-10-11)"
   sodipodi:docname="CARE_updated_text.svg"
   xmlns:inkscape="http://www.inkscape.org/namespaces/inkscape"
   xmlns:sodipodi="http://sodipodi.sourceforge.net/DTD/sodipodi-0.dtd"
   xmlns="http://www.w3.org/2000/svg"
   xmlns:svg="http://www.w3.org/2000/svg">
  <sodipodi:namedview
     id="namedview1"
     pagecolor="#ffffff"
     bordercolor="#000000"
     borderopacity="0.25"
     inkscape:showpageshadow="2"
     inkscape:pageopacity="0.0"
     inkscape:pagecheckerboard="0"
     inkscape:deskcolor="#d1d1d1"
     inkscape:document-units="mm"
     inkscape:zoom="0.70710685"
     inkscape:cx="697.91432"
     inkscape:cy="374.05945"
     inkscape:window-width="2560"
     inkscape:window-height="1369"
     inkscape:window-x="1912"
     inkscape:window-y="-8"
     inkscape:window-maximized="1"
     inkscape:current-layer="layer3"
     showguides="false"
     showgrid="true">
    <inkscape:grid
       id="grid6"
       units="mm"
       originx="0"
       originy="0"
       spacingx="1"
       spacingy="1"
       empcolor="#0099e5"
       empopacity="0.30196078"
       color="#0099e5"
       opacity="0.14901961"
       empspacing="5"
       enabled="true"
       visible="true" />
  </sodipodi:namedview>
  <defs
     id="defs1">
    <inkscape:path-effect
       effect="fillet_chamfer"
       id="path-effect52"
       is_visible="true"
       lpeversion="1"
       nodesatellites_param="F,0,0,1,0,0,0,1 @ F,0,0,1,0,0,0,1 @ F,0,0,1,0,0,0,1"
       radius="0"
       unit="px"
       method="auto"
       mode="F"
       chamfer_steps="1"
       flexible="false"
       use_knot_distance="true"
       apply_no_radius="true"
       apply_with_radius="true"
       only_selected="false"
       hide_knots="false" />
    <inkscape:path-effect
       effect="bend_path"
       id="path-effect48"
       is_visible="true"
       lpeversion="1"
       bendpath="m 369.15395,238.65961 0.4088,0.29831 0.41984,0.30936 1.43632,1.07171 1.65728,1.32582 1.94454,1.62414 0.71816,0.64081 1.91139,1.77882 1.59099,1.55784 1.9114,2.01084 0.59662,0.65186 0.19888,0.22097 0.22097,0.25412 0.43089,0.49718 0.4088,0.44194 0.7513,0.90599 1.49155,1.82301 1.43631,1.8893 1.22639,1.72357 0.7734,1.12695 1.40316,2.13237 1.01647,1.63518 0.92808,1.59099 0.51928,0.90598 0.22097,0.3867 0.17678,0.32041 0.18782,0.33146 0.0994,0.23202 -24.16317,-0.0994 z"
       prop_scale="1"
       scale_y_rel="false"
       vertical="false"
       hide_knot="false" />
    <inkscape:path-effect
       effect="bend_path"
       id="path-effect46"
       is_visible="true"
       lpeversion="1"
       bendpath="m 369.15394,238.6596 0.4088,0.29831 0.41984,0.30936 1.43632,1.07171 1.65728,1.32582 1.94454,1.62414 0.71816,0.64081 1.91139,1.77882 1.59099,1.55784 1.9114,2.01084 0.59662,0.65186 0.19888,0.22097 0.22097,0.25412 0.43089,0.49718 0.4088,0.44194 0.7513,0.90599 1.49155,1.82301 1.43631,1.8893 1.22639,1.72357 0.7734,1.12695 1.40316,2.13237 1.01647,1.63518 0.92808,1.59099 0.51928,0.90598 0.22097,0.3867 0.17678,0.32041 0.18782,0.33146 0.0994,0.23202 -24.16317,-0.0994 z"
       prop_scale="1"
       scale_y_rel="false"
       vertical="false"
       hide_knot="false" />
    <inkscape:path-effect
       effect="fillet_chamfer"
       id="path-effect45"
       is_visible="true"
       lpeversion="1"
       nodesatellites_param="F,0,0,1,0,2.0006313,0,1 @ F,0,0,1,0,0,0,1 @ F,0,0,1,0,0,0,1 @ F,0,0,1,0,0,0,1 @ F,0,0,1,0,0,0,1 @ F,0,0,1,0,0,0,1 @ F,0,0,1,0,0,0,1"
       radius="0"
       unit="px"
       method="auto"
       mode="F"
       chamfer_steps="1"
       flexible="false"
       use_knot_distance="true"
       apply_no_radius="true"
       apply_with_radius="true"
       only_selected="false"
       hide_knots="false" />
    <inkscape:path-effect
       effect="powerstroke"
       message=""
       id="path-effect44"
       is_visible="true"
       lpeversion="1.3"
       scale_width="1"
       interpolator_type="CentripetalCatmullRom"
       interpolator_beta="0.75"
       start_linecap_type="round"
       end_linecap_type="round"
       offset_points="9.1227982,0.66291263"
       linejoin_type="spiro"
       miter_limit="4"
       not_jump="true"
       sort_points="true" />
    <inkscape:path-effect
       effect="simplify"
       id="path-effect43"
       is_visible="true"
       lpeversion="1.3"
       threshold="0.012"
       steps="1"
       smooth_angles="0"
       helper_size="0"
       simplify_individual_paths="false"
       simplify_just_coalesce="false"
       step="1" />
    <inkscape:path-effect
       effect="bspline"
       id="path-effect39"
       is_visible="true"
       lpeversion="1.3"
       weight="33.333333"
       steps="2"
       helper_size="0"
       apply_no_weight="true"
       apply_with_weight="true"
       only_selected="false"
       uniform="false" />
    <inkscape:path-effect
       effect="bspline"
       id="path-effect9"
       is_visible="true"
       lpeversion="1.3"
       weight="33.333333"
       steps="2"
       helper_size="0"
       apply_no_weight="true"
       apply_with_weight="true"
       only_selected="false"
       uniform="false" />
    <inkscape:path-effect
       effect="powerstroke"
       message=""
       id="path-effect8"
       is_visible="true"
       lpeversion="1.3"
       scale_width="1"
       interpolator_type="CentripetalCatmullRom"
       interpolator_beta="0.75"
       start_linecap_type="round"
       end_linecap_type="round"
       offset_points="9.4897999,3.5401466"
       linejoin_type="spiro"
       miter_limit="4"
       not_jump="true"
       sort_points="true" />
    <inkscape:path-effect
       effect="simplify"
       id="path-effect7"
       is_visible="true"
       lpeversion="1.3"
       threshold="0.012"
       steps="1"
       smooth_angles="0"
       helper_size="0"
       simplify_individual_paths="false"
       simplify_just_coalesce="false"
       step="1" />
    <inkscape:path-effect
       effect="powerstroke"
       message=""
       id="path-effect6"
       is_visible="true"
       lpeversion="1.3"
       scale_width="1"
       interpolator_type="CentripetalCatmullRom"
       interpolator_beta="0.75"
       start_linecap_type="round"
       end_linecap_type="round"
       offset_points="2.4239307,10.013047"
       linejoin_type="spiro"
       miter_limit="4"
       not_jump="true"
       sort_points="true" />
    <inkscape:path-effect
       effect="simplify"
       id="path-effect5"
       is_visible="true"
       lpeversion="1.3"
       threshold="0.012"
       steps="1"
       smooth_angles="0"
       helper_size="0"
       simplify_individual_paths="false"
       simplify_just_coalesce="false"
       step="1" />
    <inkscape:path-effect
       effect="powerstroke"
       message=""
       id="path-effect4"
       is_visible="true"
       lpeversion="1.3"
       scale_width="1"
       interpolator_type="CentripetalCatmullRom"
       interpolator_beta="0.75"
       start_linecap_type="round"
       end_linecap_type="round"
       offset_points="8.5202658,10.013047"
       linejoin_type="spiro"
       miter_limit="4"
       not_jump="true"
       sort_points="true" />
    <inkscape:path-effect
       effect="simplify"
       id="path-effect3"
       is_visible="true"
       lpeversion="1.3"
       threshold="0.012"
       steps="1"
       smooth_angles="0"
       helper_size="0"
       simplify_individual_paths="false"
       simplify_just_coalesce="false"
       step="1" />
    <inkscape:path-effect
       effect="powerstroke"
       message=""
       id="path-effect2"
       is_visible="true"
       lpeversion="1.3"
       scale_width="1"
       interpolator_type="CentripetalCatmullRom"
       interpolator_beta="0.75"
       start_linecap_type="round"
       end_linecap_type="round"
       offset_points="4.4471836,10.013047"
       linejoin_type="spiro"
       miter_limit="4"
       not_jump="true"
       sort_points="true" />
    <inkscape:path-effect
       effect="simplify"
       id="path-effect1"
       is_visible="true"
       lpeversion="1.3"
       threshold="0.012"
       steps="1"
       smooth_angles="0"
       helper_size="0"
       simplify_individual_paths="false"
       simplify_just_coalesce="false"
       step="1" />
    <linearGradient
       id="swatch4"
       inkscape:swatch="solid"
       inkscape:label="NSCCDarkGrey"
       gradientTransform="matrix(1.2537737,0,0,0.79759209,53.097979,17.79899)">
      <stop
         style="stop-color:#495965;stop-opacity:1;"
         offset="0"
         id="stop4" />
    </linearGradient>
    <linearGradient
       id="swatch3"
       inkscape:swatch="solid"
       inkscape:label="NSCCBlue"
       gradientTransform="matrix(0.46584075,0,0,0.41547052,486.45654,233.51555)">
      <stop
         style="stop-color:#004780;stop-opacity:1;"
         offset="0"
         id="stop3" />
    </linearGradient>
  </defs>
  <g
     inkscape:label="Layer 1"
     inkscape:groupmode="layer"
     id="layer1">
    <path
       style="font-style:italic;font-weight:bold;font-size:298.901px;line-height:0.5;font-family:Inter;-inkscape-font-specification:'Inter Bold Italic';text-align:center;text-anchor:middle;fill:#004780;stroke-width:3.11355"
       d="m 352.16657,457.48083 q -20.72458,0 -35.90315,-8.17307 -15.17857,-8.17307 -23.35164,-22.9138 -8.17307,-14.88667 -8.17307,-34.73556 0,-18.53537 6.27575,-35.61125 6.27575,-17.07589 17.95157,-30.50309 11.82177,-13.57314 28.31387,-21.30837 16.63804,-7.88118 37.07073,-7.88118 14.74072,0 27.14628,4.37844 12.40556,4.37843 21.16242,12.5515 8.90282,8.02713 13.1353,19.26511 4.37843,11.23797 3.0649,24.95706 h -41.59511 q 0.14595,-5.54601 -1.16758,-10.21634 -1.16758,-4.81628 -3.94059,-8.46497 -2.773,-3.64869 -7.29739,-5.69196 -4.52438,-2.04327 -11.09202,-2.04327 -11.09203,0 -19.70295,5.40007 -8.46497,5.25412 -14.44883,14.15693 -5.83791,8.90281 -8.90281,19.84889 -2.91896,10.80014 -2.91896,21.74622 0,9.63255 2.91896,16.49209 2.91895,6.7136 8.75686,10.3623 5.98386,3.64869 14.44883,3.64869 6.85955,0 12.69746,-2.04327 5.83791,-2.04327 10.50823,-5.54601 4.81628,-3.6487 8.17308,-8.46497 3.50274,-4.96223 5.40006,-10.65419 h 41.88701 q -2.91895,13.57314 -10.21634,24.81112 -7.29739,11.23798 -17.95158,19.557 -10.50823,8.17307 -23.78948,12.69745 -13.28125,4.37843 -28.45981,4.37843 z m 152.80729,-0.29189 q -20.14079,0 -33.56798,-10.0704 -13.28125,-10.07039 -18.53536,-28.16791 -5.25412,-18.09752 -1.31353,-42.1789 3.94058,-23.78949 15.32451,-41.74106 11.38392,-18.09752 28.02197,-28.16792 16.63804,-10.21634 36.34099,-10.21634 10.07039,0 18.24347,2.77301 8.17307,2.62706 14.01098,8.02712 5.98386,5.25412 9.34066,13.28125 h 0.58379 l 3.50275,-20.87053 h 41.887 l -25.54085,154.12083 h -41.88701 l 3.79464,-23.05975 h -0.43784 q -5.83791,8.75687 -13.71909,14.59478 -7.73523,5.83791 -16.92994,8.75686 -9.04876,2.91896 -19.11916,2.91896 z m 16.92994,-35.02746 q 10.80014,0 19.8489,-5.54602 9.19471,-5.69196 15.32451,-15.9083 6.27576,-10.21634 8.46497,-23.93543 2.33517,-13.86504 -0.58379,-23.93544 -2.77301,-10.21634 -10.07039,-15.76235 -7.15144,-5.69197 -17.95158,-5.69197 -10.36229,0 -19.11915,5.40007 -8.61092,5.40007 -14.59478,15.47046 -5.83791,10.0704 -8.31902,24.51923 -2.33517,14.44882 0.14595,24.66517 2.62706,10.07039 9.4866,15.47046 7.00549,5.25412 17.36778,5.25412 z m 101.87153,31.81661 25.54086,-154.12083 h 41.44916 l -4.37843,26.2706 h 0.43784 q 6.56765,-13.86504 16.63805,-20.57864 10.21634,-6.71359 25.54086,-6.71359 3.79464,0 6.85954,0.14594 3.21085,0 5.69196,0.14595 l -5.98386,36.63289 q -2.33516,-0.14595 -7.73523,-0.43785 -5.25412,-0.29189 -10.65418,-0.29189 -8.75687,0 -16.4921,4.08654 -7.58928,3.94059 -12.8434,11.82176 -5.25412,7.88118 -7.15144,19.557 l -13.86504,83.48212 z m 183.2813,3.50274 q -22.33001,0 -38.38426,-8.02712 -16.05425,-8.17308 -23.93543,-24.51922 -7.73523,-16.4921 -5.25412,-41.30322 1.60542,-19.99484 9.04876,-36.04909 7.44333,-16.20021 19.557,-27.58413 12.25961,-11.52987 28.16791,-17.51373 15.90831,-6.12981 34.58962,-6.12981 17.22184,0 30.94093,5.25412 13.71908,5.25412 21.60026,15.90831 8.02713,10.50824 8.02713,26.27059 0,16.34615 -9.04876,26.2706 -9.04876,9.7785 -26.41654,14.74072 -17.22184,4.81628 -42.32485,6.56765 -25.10302,1.60543 -57.21152,1.60543 l 4.52438,-28.02197 q 27.87602,0 45.5357,-1.31353 17.80562,-1.31353 27.58412,-3.79464 9.7785,-2.48112 13.4272,-6.4217 3.79464,-3.94059 3.79464,-9.04877 0,-7.29738 -6.4217,-11.38392 -6.27576,-4.08654 -18.38942,-4.08654 -13.28125,0 -21.89216,4.81628 -8.46497,4.81627 -13.4272,12.98935 -4.81627,8.02713 -7.00549,18.09752 -2.18922,9.92445 -2.91895,20.57863 -0.72974,11.23798 0.87568,20.28674 1.75138,9.04876 8.17308,14.30288 6.56765,5.25412 20.14079,5.25412 14.15693,0 23.05974,-5.69196 8.90281,-5.83791 12.55151,-15.03262 h 40.28158 q -8.31902,23.78948 -28.45981,38.38426 -20.14079,14.59477 -50.78982,14.59477 z"
       id="text4"
       transform="scale(0.99943992,1.0005604)"
       aria-label="care" />
  </g>
  <g
     inkscape:groupmode="layer"
     id="layer3"
     inkscape:label="heart"
     style="display:inline">
    <path
       id="rect10-4"
       style="display:inline;fill:none;fill-opacity:1;stroke:#004780;stroke-width:24.3439;stroke-dasharray:none;stroke-opacity:1"
       d="m 314.35798,492.90005 c -4.22161,-0.26127 -78.67791,-7.19316 -84.58897,-10.41565 -44.40749,-24.20934 14.90042,-81.51084 12.00225,-84.26092 -26.99414,-25.6148 -88.20969,-90.81161 -76.57252,-134.72504 1.25546,-4.73755 2.43106,-7.45205 4.15066,-12.83722 24.30994,-40.16086 78.29764,-20.40993 107.1639,11.42199 21.25909,-17.61261 38.97715,-34.18999 63.36184,-28.61031 9.37996,2.14631 19.04375,5.47962 29.42945,15.86532 l 10e-4,0.001 c 13.39797,13.39797 7.68408,34.19884 7.57594,42.78832"
       sodipodi:nodetypes="csssccsssc" />
  </g>
  <g
     inkscape:groupmode="layer"
     id="layer2"
     inkscape:label="heart 1">
    <path
       d="m 916.69826,447.64869 c 0.0412,20.74215 -10.02795,45.1201 -47.15794,46.35706 -51.05118,1.70074 -71.9957,1.16172 -112.56632,0.57973"
       style="display:inline;fill:none;fill-opacity:1;stroke:#004780;stroke-width:20.788;stroke-dasharray:none;stroke-opacity:1"
       id="path1"
       sodipodi:nodetypes="csc" />
    <path
       id="path6"
       style="fill:#004780;fill-opacity:1;stroke:none;stroke-width:2.49226"
       d="m 916.17057,408.34636 a 18.721008,17.963165 0 0 0 -18.7207,17.96289 18.721008,17.963165 0 0 0 18.7207,17.96289 18.721008,17.963165 0 0 0 18.72071,-17.96289 18.721008,17.963165 0 0 0 -18.72071,-17.96289 z m -0.0625,8.75 a 9.5335083,9.2756653 0 0 1 9.53321,9.27539 9.5335083,9.2756653 0 0 1 -9.53321,9.27539 9.5335083,9.2756653 0 0 1 -9.5332,-9.27539 9.5335083,9.2756653 0 0 1 9.5332,-9.27539 z" />
    <ellipse
       style="fill:#000000;fill-opacity:1;stroke:none;stroke-width:0.855423;stroke-opacity:1"
       id="ellipse8"
       ry="6.2085648"
       rx="6.3811488"
       cy="426.65451"
       cx="916.15283" />
  </g>
  <g
     inkscape:groupmode="layer"
     id="g5"
     inkscape:label="text"
     transform="translate(-8.5710678,102.33394)"
     style="display:inline">
    <path
       style="font-size:29.3333px;font-family:Inter;-inkscape-font-specification:'Inter, @opsz=32';font-variation-settings:'opsz' 32;text-align:center;text-anchor:middle;fill:url(#swatch4);stroke-width:12.6047;stroke-miterlimit:1.9"
       d="m 318.63186,425.61777 q -2.95052,0 -5.17057,-1.40365 -2.22005,-1.41796 -3.46614,-3.89583 -1.23177,-2.49218 -1.23177,-5.70051 0,-3.23698 1.23177,-5.71484 1.23177,-2.49218 3.45182,-3.89583 2.23437,-1.41796 5.18489,-1.41796 1.67578,0 3.13671,0.5013 1.47526,0.5013 2.63541,1.46093 1.17448,0.94532 1.94792,2.27734 0.77344,1.33203 1.07422,3.00781 h -2.63542 q -0.25781,-1.16015 -0.8164,-2.06249 -0.5586,-0.90235 -1.36068,-1.51823 -0.80208,-0.63021 -1.81901,-0.94531 -1.0026,-0.31511 -2.16275,-0.31511 -2.2487,0 -3.88151,1.10287 -1.63281,1.08854 -2.52083,3.03645 -0.88802,1.93359 -0.88802,4.48307 0,2.53515 0.88802,4.46874 0.88802,1.9336 2.52083,3.03646 1.63281,1.08854 3.88151,1.08854 1.16015,0 2.16275,-0.3151 1.00261,-0.31511 1.80469,-0.93099 0.80208,-0.61589 1.36067,-1.50391 0.57292,-0.90234 0.84506,-2.06249 h 2.62109 q -0.28646,1.66145 -1.07422,2.99348 -0.77344,1.33203 -1.94792,2.27734 -1.16015,0.94531 -2.63541,1.44662 -1.46093,0.5013 -3.13671,0.5013 z m 14.2656,-21.68487 v 21.34112 h -2.43489 V 403.9329 Z m 3.60937,21.34112 v -15.12499 h 2.4349 v 15.12499 z m 1.21745,-18.0755 q -0.6875,0 -1.17448,-0.48698 -0.48698,-0.48698 -0.48698,-1.17448 0,-0.6875 0.48698,-1.17448 0.48698,-0.48698 1.17448,-0.48698 0.6875,0 1.17448,0.48698 0.48698,0.48698 0.48698,1.17448 0,0.6875 -0.48698,1.17448 -0.48698,0.48698 -1.17448,0.48698 z m 7.26171,9.22395 v 8.85155 h -2.43489 v -15.12499 h 2.3776 v 3.66667 h -0.6875 q 0.74479,-2.04818 2.0625,-2.99349 1.33203,-0.95963 3.12239,-0.95963 1.53255,0 2.79296,0.67317 1.26042,0.65886 2.00521,1.99089 0.75911,1.33203 0.75911,3.35155 v 9.39583 h -2.43489 v -9.22395 q 0,-1.96224 -0.94531,-2.95052 -0.93099,-1.0026 -2.63541,-1.0026 -1.10287,0 -2.00521,0.44401 -0.90234,0.44401 -1.44661,1.40364 -0.52995,0.94531 -0.52995,2.47787 z m 13.60676,8.85155 v -15.12499 h 2.43489 v 15.12499 z m 1.21744,-18.0755 q -0.6875,0 -1.17448,-0.48698 -0.48697,-0.48698 -0.48697,-1.17448 0,-0.6875 0.48697,-1.17448 0.48698,-0.48698 1.17448,-0.48698 0.6875,0 1.17448,0.48698 0.48698,0.48698 0.48698,1.17448 0,0.6875 -0.48698,1.17448 -0.48698,0.48698 -1.17448,0.48698 z m 11.07161,18.41925 q -2.09115,0 -3.68099,-1.00261 -1.57552,-1.01692 -2.46354,-2.79296 -0.8737,-1.77604 -0.8737,-4.08203 0,-2.32031 0.8737,-4.11067 0.88802,-1.79036 2.46354,-2.80729 1.58984,-1.01692 3.68099,-1.01692 1.28906,0 2.3776,0.40104 1.10286,0.38671 1.93359,1.10286 0.84505,0.70182 1.375,1.66146 0.52994,0.95963 0.6875,2.10546 h -2.46354 q -0.12891,-0.67317 -0.44401,-1.23177 -0.31511,-0.55859 -0.81641,-0.95963 -0.48698,-0.41537 -1.14583,-0.64453 -0.65885,-0.22917 -1.5039,-0.22917 -1.41797,0 -2.44922,0.71615 -1.01693,0.70182 -1.5612,1.99088 -0.54427,1.28906 -0.54427,3.02213 0,1.71875 0.54427,2.99349 0.54427,1.27474 1.5612,1.97656 1.01693,0.70182 2.44922,0.70182 0.84505,0 1.48958,-0.21484 0.64453,-0.21485 1.10286,-0.61589 0.47266,-0.41536 0.78776,-0.97396 0.3151,-0.57291 0.48698,-1.26041 h 2.50651 q -0.15756,1.11719 -0.6875,2.07682 -0.52995,0.95963 -1.375,1.67578 -0.84505,0.71614 -1.94792,1.11719 -1.08854,0.40104 -2.36327,0.40104 z m 13.85024,-0.11459 q -1.5039,0 -2.69271,-0.51562 -1.1888,-0.51563 -1.89062,-1.53255 -0.6875,-1.03125 -0.6875,-2.53515 0,-1.30339 0.5013,-2.11979 0.51563,-0.81641 1.36068,-1.27474 0.85937,-0.47266 1.93359,-0.71615 1.08854,-0.24349 2.22005,-0.38671 1.44661,-0.20053 2.27734,-0.30079 0.83073,-0.10026 1.17448,-0.32942 0.35807,-0.22917 0.35807,-0.80209 v -0.14322 q 0,-0.83073 -0.40104,-1.46094 -0.38672,-0.64453 -1.14583,-1.0026 -0.74479,-0.3724 -1.80469,-0.3724 -1.04557,0 -1.86197,0.35807 -0.80209,0.34375 -1.28906,0.94532 -0.47266,0.60156 -0.52995,1.36067 h -2.47786 q 0.0716,-1.38932 0.85937,-2.46354 0.78776,-1.08854 2.14844,-1.71875 1.36067,-0.6302 3.15103,-0.6302 1.31771,0 2.37761,0.35807 1.07421,0.35807 1.819,1.01693 0.75912,0.65885 1.16016,1.57551 0.40104,0.91667 0.40104,2.03386 v 10.42707 h -2.40625 v -2.14844 h -0.0573 q -0.27213,0.54427 -0.80208,1.10287 -0.52995,0.54427 -1.43229,0.91666 -0.88802,0.35807 -2.26302,0.35807 z m 0.34375,-2.17708 q 1.48958,0 2.42057,-0.52994 0.93099,-0.54427 1.36068,-1.40365 0.42968,-0.85937 0.42968,-1.84765 v -1.89063 q -0.14323,0.12891 -0.52994,0.24349 -0.3724,0.11459 -0.93099,0.22917 -0.54427,0.10026 -1.1888,0.20052 -0.63021,0.10026 -1.27474,0.1862 -0.8737,0.11458 -1.66146,0.40104 -0.77344,0.27213 -1.26041,0.78776 -0.48698,0.5013 -0.48698,1.36067 0,0.70183 0.37239,1.21745 0.38672,0.5013 1.08854,0.77344 0.70183,0.27213 1.66146,0.27213 z m 12.66144,-19.3932 v 21.34112 h -2.43489 V 403.9329 Z m 9.42447,21.34112 7.87759,-21.34112 h 2.92188 l 7.79165,21.34112 h -2.74999 l -4.48307,-12.86197 q -0.44401,-1.27474 -1.0026,-2.90755 -0.54427,-1.64713 -1.38933,-4.31119 h 0.7448 q -0.84506,2.66406 -1.40365,4.31119 -0.54427,1.63281 -1.0026,2.90755 l -4.61198,12.86197 z m 4.0677,-5.98697 v -2.29167 h 10.45572 v 2.29167 z m 21.88539,6.33072 q -1.61848,0 -2.93619,-0.52995 -1.31771,-0.52995 -2.13411,-1.60417 -0.81641,-1.08854 -0.91667,-2.73567 h 2.40625 q 0.1289,1.34635 1.03125,2.0625 0.90234,0.71614 2.49218,0.71614 1.57552,0 2.47786,-0.65885 0.91667,-0.65885 0.91667,-1.66146 0,-0.85937 -0.63021,-1.37499 -0.63021,-0.51563 -1.64713,-0.7448 l -2.43489,-0.57291 q -2.10547,-0.5013 -3.19401,-1.57552 -1.07422,-1.07422 -1.07422,-2.72135 0,-1.28906 0.6875,-2.27734 0.70182,-1.00261 1.93359,-1.5612 1.24609,-0.57291 2.86458,-0.57291 1.57552,0 2.82161,0.60156 1.26042,0.58724 1.99089,1.67578 0.74479,1.08854 0.78776,2.59244 h -2.37761 q -0.0143,-1.20312 -0.88802,-1.99088 -0.87369,-0.78776 -2.33463,-0.78776 -1.38932,0 -2.22005,0.67317 -0.83073,0.67318 -0.83073,1.64714 0,0.85937 0.63021,1.38932 0.63021,0.51562 1.71875,0.77344 l 2.43489,0.57291 q 2.17708,0.51563 3.19401,1.54688 1.01693,1.01692 1.01693,2.64973 0,1.40365 -0.75912,2.40625 -0.75911,1.0026 -2.07682,1.53255 -1.30338,0.52995 -2.95052,0.52995 z m 13.92187,0 q -1.61849,0 -2.93619,-0.52995 -1.31771,-0.52995 -2.13412,-1.60417 -0.8164,-1.08854 -0.91666,-2.73567 h 2.40625 q 0.1289,1.34635 1.03124,2.0625 0.90235,0.71614 2.49219,0.71614 1.57552,0 2.47786,-0.65885 0.91667,-0.65885 0.91667,-1.66146 0,-0.85937 -0.63021,-1.37499 -0.63021,-0.51563 -1.64713,-0.7448 l -2.4349,-0.57291 q -2.10546,-0.5013 -3.194,-1.57552 -1.07422,-1.07422 -1.07422,-2.72135 0,-1.28906 0.6875,-2.27734 0.70182,-1.00261 1.93359,-1.5612 1.24609,-0.57291 2.86458,-0.57291 1.57552,0 2.82161,0.60156 1.26042,0.58724 1.99088,1.67578 0.74479,1.08854 0.78776,2.59244 h -2.3776 q -0.0143,-1.20312 -0.88802,-1.99088 -0.8737,-0.78776 -2.33463,-0.78776 -1.38932,0 -2.22005,0.67317 -0.83073,0.67318 -0.83073,1.64714 0,0.85937 0.63021,1.38932 0.63021,0.51562 1.71875,0.77344 l 2.43489,0.57291 q 2.17708,0.51563 3.19401,1.54688 1.01692,1.01692 1.01692,2.64973 0,1.40365 -0.75911,2.40625 -0.75911,1.0026 -2.07682,1.53255 -1.30339,0.52995 -2.95052,0.52995 z m 8.65103,-0.34375 v -15.12499 h 2.4349 v 15.12499 z m 1.21745,-18.0755 q -0.6875,0 -1.17448,-0.48698 -0.48698,-0.48698 -0.48698,-1.17448 0,-0.6875 0.48698,-1.17448 0.48698,-0.48698 1.17448,-0.48698 0.6875,0 1.17448,0.48698 0.48698,0.48698 0.48698,1.17448 0,0.6875 -0.48698,1.17448 -0.48698,0.48698 -1.17448,0.48698 z m 10.09763,18.41925 q -1.61849,0 -2.93619,-0.52995 -1.31771,-0.52995 -2.13412,-1.60417 -0.8164,-1.08854 -0.91666,-2.73567 h 2.40625 q 0.1289,1.34635 1.03124,2.0625 0.90235,0.71614 2.49219,0.71614 1.57552,0 2.47786,-0.65885 0.91667,-0.65885 0.91667,-1.66146 0,-0.85937 -0.63021,-1.37499 -0.63021,-0.51563 -1.64713,-0.7448 l -2.4349,-0.57291 q -2.10546,-0.5013 -3.194,-1.57552 -1.07422,-1.07422 -1.07422,-2.72135 0,-1.28906 0.6875,-2.27734 0.70182,-1.00261 1.93359,-1.5612 1.24609,-0.57291 2.86458,-0.57291 1.57552,0 2.82161,0.60156 1.26042,0.58724 1.99088,1.67578 0.74479,1.08854 0.78776,2.59244 h -2.3776 q -0.0143,-1.20312 -0.88802,-1.99088 -0.8737,-0.78776 -2.33463,-0.78776 -1.38932,0 -2.22005,0.67317 -0.83073,0.67318 -0.83073,1.64714 0,0.85937 0.63021,1.38932 0.63021,0.51562 1.71875,0.77344 l 2.43489,0.57291 q 2.17708,0.51563 3.19401,1.54688 1.01692,1.01692 1.01692,2.64973 0,1.40365 -0.75911,2.40625 -0.75911,1.0026 -2.07682,1.53255 -1.30339,0.52995 -2.95052,0.52995 z m 15.54036,-15.46874 v 2.09115 h -8.1927 v -2.09115 z m -5.49999,-4.12499 h 2.43489 v 15.58331 q 0,0.8737 0.35807,1.23177 0.3724,0.34375 1.30338,0.34375 0.32943,0 0.70183,0 0.38672,0 0.70182,0 v 2.09115 q -0.3724,0 -0.81641,0 -0.44401,0 -0.8164,0 -1.94792,0 -2.90755,-0.84505 -0.95963,-0.85938 -0.95963,-2.5638 z m 13.06248,19.47914 q -1.5039,0 -2.6927,-0.51562 -1.1888,-0.51563 -1.89063,-1.53255 -0.6875,-1.03125 -0.6875,-2.53515 0,-1.30339 0.50131,-2.11979 0.51562,-0.81641 1.36067,-1.27474 0.85937,-0.47266 1.93359,-0.71615 1.08854,-0.24349 2.22005,-0.38671 1.44661,-0.20053 2.27734,-0.30079 0.83073,-0.10026 1.17448,-0.32942 0.35807,-0.22917 0.35807,-0.80209 v -0.14322 q 0,-0.83073 -0.40104,-1.46094 -0.38672,-0.64453 -1.14583,-1.0026 -0.74479,-0.3724 -1.80469,-0.3724 -1.04557,0 -1.86197,0.35807 -0.80208,0.34375 -1.28906,0.94532 -0.47266,0.60156 -0.52995,1.36067 h -2.47786 q 0.0716,-1.38932 0.85937,-2.46354 0.78776,-1.08854 2.14844,-1.71875 1.36067,-0.6302 3.15103,-0.6302 1.31771,0 2.37761,0.35807 1.07421,0.35807 1.819,1.01693 0.75912,0.65885 1.16016,1.57551 0.40104,0.91667 0.40104,2.03386 v 10.42707 h -2.40625 v -2.14844 h -0.0573 q -0.27213,0.54427 -0.80208,1.10287 -0.52995,0.54427 -1.43229,0.91666 -0.88802,0.35807 -2.26302,0.35807 z m 0.34375,-2.17708 q 1.48958,0 2.42057,-0.52994 0.93099,-0.54427 1.36068,-1.40365 0.42968,-0.85937 0.42968,-1.84765 v -1.89063 q -0.14323,0.12891 -0.52994,0.24349 -0.3724,0.11459 -0.93099,0.22917 -0.54427,0.10026 -1.1888,0.20052 -0.63021,0.10026 -1.27474,0.1862 -0.8737,0.11458 -1.66146,0.40104 -0.77343,0.27213 -1.26041,0.78776 -0.48698,0.5013 -0.48698,1.36067 0,0.70183 0.37239,1.21745 0.38672,0.5013 1.08854,0.77344 0.70183,0.27213 1.66146,0.27213 z m 12.66144,-6.90363 v 8.85155 h -2.4349 v -15.12499 h 2.3776 v 3.66667 h -0.68749 q 0.74479,-2.04818 2.06249,-2.99349 1.33203,-0.95963 3.1224,-0.95963 1.53255,0 2.79296,0.67317 1.26042,0.65886 2.00521,1.99089 0.75911,1.33203 0.75911,3.35155 v 9.39583 h -2.43489 v -9.22395 q 0,-1.96224 -0.94531,-2.95052 -0.93099,-1.0026 -2.63542,-1.0026 -1.10286,0 -2.0052,0.44401 -0.90235,0.44401 -1.44662,1.40364 -0.52994,0.94531 -0.52994,2.47787 z m 19.85154,9.1953 q -2.09114,0 -3.68098,-1.00261 -1.57552,-1.01692 -2.46354,-2.79296 -0.8737,-1.77604 -0.8737,-4.08203 0,-2.32031 0.8737,-4.11067 0.88802,-1.79036 2.46354,-2.80729 1.58984,-1.01692 3.68098,-1.01692 1.28907,0 2.37761,0.40104 1.10286,0.38671 1.93359,1.10286 0.84505,0.70182 1.375,1.66146 0.52994,0.95963 0.6875,2.10546 h -2.46354 q -0.12891,-0.67317 -0.44401,-1.23177 -0.31511,-0.55859 -0.81641,-0.95963 -0.48698,-0.41537 -1.14583,-0.64453 -0.65885,-0.22917 -1.50391,-0.22917 -1.41796,0 -2.44921,0.71615 -1.01693,0.70182 -1.5612,1.99088 -0.54427,1.28906 -0.54427,3.02213 0,1.71875 0.54427,2.99349 0.54427,1.27474 1.5612,1.97656 1.01692,0.70182 2.44921,0.70182 0.84506,0 1.48959,-0.21484 0.64453,-0.21485 1.10286,-0.61589 0.47266,-0.41536 0.78776,-0.97396 0.3151,-0.57291 0.48698,-1.26041 h 2.50651 q -0.15756,1.11719 -0.6875,2.07682 -0.52995,0.95963 -1.375,1.67578 -0.84505,0.71614 -1.94792,1.11719 -1.08854,0.40104 -2.36328,0.40104 z m 15.33982,0 q -2.22005,0 -3.79557,-1.01693 -1.5612,-1.01692 -2.39193,-2.79296 -0.83072,-1.79037 -0.83072,-4.06771 0,-2.30599 0.87369,-4.09635 0.8737,-1.79036 2.42057,-2.80729 1.54688,-1.03124 3.55208,-1.03124 1.57552,0 2.83594,0.57291 1.27474,0.57292 2.17708,1.63281 0.90234,1.0599 1.375,2.52083 0.48698,1.44662 0.48698,3.20833 v 0.67318 h -12.43228 v -2.09115 h 11.0716 l -1.04557,0.73047 q 0,-1.54687 -0.5586,-2.67838 -0.54427,-1.14583 -1.54687,-1.76172 -1.0026,-0.6302 -2.36328,-0.6302 -1.34635,0 -2.34895,0.6302 -0.98828,0.61589 -1.54688,1.76172 -0.54427,1.13151 -0.54427,2.67838 v 1.03125 q 0,1.5612 0.52995,2.76432 0.54427,1.20312 1.57552,1.89062 1.03125,0.67318 2.50651,0.67318 1.07422,0 1.89062,-0.32943 0.81641,-0.34375 1.34635,-0.94531 0.54427,-0.60156 0.77344,-1.38932 h 2.43489 q -0.28646,1.44661 -1.1888,2.54948 -0.90234,1.08854 -2.26302,1.70442 -1.34635,0.61589 -2.99348,0.61589 z m 17.13019,-0.34375 V 403.9329 h 7.92057 q 2.23437,0 3.85286,0.78776 1.63281,0.78776 2.5065,2.24869 0.88802,1.44661 0.88802,3.4375 0,1.99088 -0.94531,3.45182 -0.93099,1.46093 -2.60677,2.24869 -1.67577,0.78776 -3.89582,0.78776 h -6.28776 v -2.29166 h 6.43098 q 1.47526,0 2.53516,-0.5013 1.07422,-0.51563 1.64713,-1.46094 0.57292,-0.94531 0.57292,-2.23437 0,-1.30339 -0.58724,-2.23438 -0.57292,-0.93098 -1.64713,-1.43229 -1.0599,-0.51562 -2.54948,-0.51562 h -5.25651 v 19.04946 z m 12.41796,0 -5.15625,-9.59635 h 2.92187 l 5.24219,9.59635 z m 11.48697,0.34375 q -2.22005,0 -3.79557,-1.01693 -1.56119,-1.01692 -2.39192,-2.79296 -0.83073,-1.79037 -0.83073,-4.06771 0,-2.30599 0.8737,-4.09635 0.8737,-1.79036 2.42057,-2.80729 1.54687,-1.03124 3.55208,-1.03124 1.57552,0 2.83593,0.57291 1.27474,0.57292 2.17708,1.63281 0.90235,1.0599 1.375,2.52083 0.48698,1.44662 0.48698,3.20833 v 0.67318 h -12.43228 v -2.09115 h 11.07161 l -1.04558,0.73047 q 0,-1.54687 -0.55859,-2.67838 -0.54427,-1.14583 -1.54687,-1.76172 -1.00261,-0.6302 -2.36328,-0.6302 -1.34635,0 -2.34896,0.6302 -0.98828,0.61589 -1.54687,1.76172 -0.54427,1.13151 -0.54427,2.67838 v 1.03125 q 0,1.5612 0.52995,2.76432 0.54427,1.20312 1.57552,1.89062 1.03124,0.67318 2.5065,0.67318 1.07422,0 1.89063,-0.32943 0.8164,-0.34375 1.34635,-0.94531 0.54427,-0.60156 0.77344,-1.38932 h 2.43489 q -0.28646,1.44661 -1.1888,2.54948 -0.90234,1.08854 -2.26302,1.70442 -1.34635,0.61589 -2.99349,0.61589 z m 15.72654,0 q -2.09115,0 -3.68099,-1.00261 -1.57552,-1.01692 -2.46354,-2.79296 -0.8737,-1.77604 -0.8737,-4.08203 0,-2.32031 0.8737,-4.11067 0.88802,-1.79036 2.46354,-2.80729 1.58984,-1.01692 3.68099,-1.01692 1.28906,0 2.3776,0.40104 1.10286,0.38671 1.93359,1.10286 0.84505,0.70182 1.375,1.66146 0.52994,0.95963 0.6875,2.10546 h -2.46354 q -0.12891,-0.67317 -0.44401,-1.23177 -0.31511,-0.55859 -0.81641,-0.95963 -0.48698,-0.41537 -1.14583,-0.64453 -0.65885,-0.22917 -1.5039,-0.22917 -1.41797,0 -2.44922,0.71615 -1.01693,0.70182 -1.5612,1.99088 -0.54427,1.28906 -0.54427,3.02213 0,1.71875 0.54427,2.99349 0.54427,1.27474 1.5612,1.97656 1.01693,0.70182 2.44922,0.70182 0.84505,0 1.48958,-0.21484 0.64453,-0.21485 1.10286,-0.61589 0.47266,-0.41536 0.78776,-0.97396 0.3151,-0.57291 0.48698,-1.26041 h 2.50651 q -0.15756,1.11719 -0.6875,2.07682 -0.52995,0.95963 -1.375,1.67578 -0.84505,0.71614 -1.94792,1.11719 -1.08854,0.40104 -2.36327,0.40104 z m 15.33984,0 q -2.09114,0 -3.68099,-1.00261 -1.57552,-1.01692 -2.46354,-2.79296 -0.87369,-1.77604 -0.87369,-4.08203 0,-2.32031 0.87369,-4.11067 0.88802,-1.79036 2.46354,-2.80729 1.58985,-1.01692 3.68099,-1.01692 2.10547,0 3.68098,1.01692 1.57552,1.01693 2.44922,2.80729 0.88802,1.79036 0.88802,4.11067 0,2.30599 -0.88802,4.08203 -0.8737,1.77604 -2.44922,2.79296 -1.57551,1.00261 -3.68098,1.00261 z m 0,-2.20573 q 1.43229,0 2.44922,-0.70182 1.01692,-0.70182 1.56119,-1.97656 0.54427,-1.28906 0.54427,-2.99349 0,-1.73307 -0.54427,-3.00781 -0.54427,-1.28906 -1.56119,-2.0052 -1.01693,-0.71615 -2.44922,-0.71615 -1.41797,0 -2.44922,0.71615 -1.01692,0.70182 -1.56119,1.99088 -0.54427,1.28906 -0.54427,3.02213 0,1.71875 0.54427,2.99349 0.54427,1.27474 1.56119,1.97656 1.01693,0.70182 2.44922,0.70182 z m 9.85415,1.86198 v -15.12499 h 2.32031 v 2.37761 h 0.0573 q 0.41537,-1.17448 1.31771,-1.89063 0.90234,-0.71614 2.32031,-0.71614 0.32943,0 0.60156,0.0286 0.28646,0.0287 0.42969,0.0573 v 2.43489 q -0.14323,-0.043 -0.55859,-0.10026 -0.40104,-0.0716 -0.93099,-0.0716 -0.83073,0 -1.54688,0.38672 -0.71614,0.38672 -1.14583,1.20313 -0.42968,0.8164 -0.42968,2.10546 v 9.30989 z m 14.95311,0.28646 q -1.96224,0 -3.45182,-0.98828 -1.47526,-1.00261 -2.29166,-2.76432 -0.81641,-1.77604 -0.81641,-4.09635 0,-2.33464 0.81641,-4.09635 0.8164,-1.77604 2.29166,-2.76432 1.48958,-0.98828 3.45182,-0.98828 0.98828,0 1.8763,0.28645 0.90234,0.27214 1.63281,0.83073 0.73047,0.5586 1.21745,1.40365 h 0.0286 v -8.45051 h 2.4349 v 21.34112 h -2.3776 v -2.29167 h -0.0286 q -0.54427,0.8737 -1.28906,1.44662 -0.74479,0.57291 -1.63281,0.84505 -0.8737,0.28646 -1.86198,0.28646 z m 0.3724,-2.19141 q 1.40364,0 2.43489,-0.70182 1.03125,-0.70182 1.58984,-1.97656 0.55859,-1.27474 0.55859,-2.97916 0,-1.71875 -0.55859,-2.99349 -0.55859,-1.27474 -1.58984,-1.97656 -1.03125,-0.70182 -2.43489,-0.70182 -1.30339,0 -2.32031,0.64453 -1.00261,0.64453 -1.57552,1.90494 -0.57292,1.26042 -0.57292,3.1224 0,1.84765 0.57292,3.10807 0.57291,1.26041 1.57552,1.90494 1.01692,0.64453 2.32031,0.64453 z m 18.07547,1.90495 V 403.9329 h 13.87889 v 2.29166 h -11.30077 v 6.97525 h 10.47005 v 2.29167 h -10.47005 v 7.49087 h 11.30077 v 2.29167 z m 19.12107,-8.85155 v 8.85155 h -2.43489 v -15.12499 h 2.3776 v 3.66667 h -0.6875 q 0.74479,-2.04818 2.0625,-2.99349 1.33203,-0.95963 3.12239,-0.95963 1.53255,0 2.79297,0.67317 1.26041,0.65886 2.0052,1.99089 0.75912,1.33203 0.75912,3.35155 v 9.39583 h -2.43489 v -9.22395 q 0,-1.96224 -0.94532,-2.95052 -0.93098,-1.0026 -2.63541,-1.0026 -1.10286,0 -2.00521,0.44401 -0.90234,0.44401 -1.44661,1.40364 -0.52995,0.94531 -0.52995,2.47787 z m 20.20962,-6.27344 v 2.09115 h -8.19269 v -2.09115 z m -5.49999,-4.12499 h 2.43489 v 15.58331 q 0,0.8737 0.35808,1.23177 0.37239,0.34375 1.30338,0.34375 0.32943,0 0.70182,0 0.38672,0 0.70182,0 v 2.09115 q -0.37239,0 -0.8164,0 -0.44401,0 -0.81641,0 -1.94791,0 -2.90755,-0.84505 -0.95963,-0.85938 -0.95963,-2.5638 z m 8.02083,19.24998 v -15.12499 h 2.3203 v 2.37761 h 0.0573 q 0.41536,-1.17448 1.3177,-1.89063 0.90235,-0.71614 2.32031,-0.71614 0.32943,0 0.60157,0.0286 0.28645,0.0287 0.42968,0.0573 v 2.43489 q -0.14323,-0.043 -0.55859,-0.10026 -0.40104,-0.0716 -0.93099,-0.0716 -0.83073,0 -1.54687,0.38672 -0.71615,0.38672 -1.14583,1.20313 -0.42969,0.8164 -0.42969,2.10546 v 9.30989 z m 9.81117,5.98697 v -2.14844 h 1.48958 q 0.47266,0 0.83073,-0.20052 0.3724,-0.18619 0.67318,-0.58723 0.30078,-0.40105 0.54427,-1.03125 l 0.83073,-2.14844 -5.85807,-14.99608 h 2.63541 l 3.26563,8.70833 q 0.41536,1.08854 0.80208,2.17708 0.38672,1.08854 0.74479,2.17708 h -0.64453 q 0.35807,-1.08854 0.74479,-2.17708 0.40104,-1.08854 0.80208,-2.17708 l 3.20833,-8.70833 h 2.59245 l -6.97526,17.93228 q -0.40104,1.01692 -1.01692,1.71874 -0.61589,0.71615 -1.41797,1.08854 -0.80208,0.3724 -1.76172,0.3724 -0.37239,0 -0.74479,0 -0.37239,0 -0.74479,0 z"
       id="text1-4"
       transform="scale(1.0581684,0.94502916)"
       aria-label="Clinical Assistance Record Entry&#10;" />
  </g>
</svg>
